<?xml version="1.0" standalone="no"?>
<!DOCTYPE svg PUBLIC "-//W3C//DTD SVG 20010904//EN"
 "http://www.w3.org/TR/2001/REC-SVG-20010904/DTD/svg10.dtd">
<svg version="1.0" xmlns="http://www.w3.org/2000/svg"
 width="2500.000000pt" height="2500.000000pt" viewBox="0 0 2500.000000 2500.000000"
 preserveAspectRatio="xMidYMid meet">
<metadata>
Created by potrace 1.11, written by Peter Selinger 2001-2013
</metadata>
<g transform="translate(0.000000,2500.000000) scale(0.100000,-0.100000)"
fill="#000000" stroke="none">
<path d="M12290 22923 c-1155 -28 -2334 -265 -3420 -688 -1190 -464 -2308
-1166 -3235 -2032 -163 -153 -477 -468 -600 -603 -1496 -1642 -2413 -3715
-2614 -5905 -36 -386 -44 -621 -38 -1083 5 -440 18 -655 57 -1007 143 -1260
515 -2476 1100 -3587 145 -276 242 -441 462 -793 142 -227 168 -275 164 -298
-3 -16 -233 -859 -512 -1874 -278 -1015 -503 -1847 -501 -1850 4 -4 1782 458
2377 617 123 33 832 219 1312 344 75 20 143 36 150 36 8 0 122 -64 253 -141
829 -489 1464 -777 2274 -1030 755 -235 1461 -369 2326 -440 205 -17 993 -23
1237 -10 1738 94 3373 608 4838 1519 1018 633 1945 1469 2676 2412 1134 1464
1837 3163 2063 4985 54 433 74 771 74 1255 0 630 -44 1151 -148 1757 -419
2434 -1726 4633 -3690 6207 -1017 816 -2215 1439 -3460 1801 -842 245 -1638
372 -2535 405 -249 9 -353 10 -610 3z m-3305 -4537 c191 -43 352 -190 474
-434 71 -142 307 -707 717 -1714 108 -266 223 -543 255 -616 32 -72 65 -159
74 -191 18 -71 19 -180 3 -253 -16 -67 -159 -357 -229 -465 -68 -103 -438
-547 -596 -715 -147 -156 -184 -221 -191 -333 -9 -139 47 -253 343 -700 585
-884 1210 -1559 1970 -2131 535 -402 985 -661 1710 -985 407 -182 411 -183
540 -184 101 0 114 2 164 28 89 46 121 77 340 335 373 440 582 700 771 961
107 149 154 196 235 239 46 25 59 27 165 26 106 0 124 -3 230 -38 159 -53 493
-203 1025 -461 99 -48 234 -113 300 -145 125 -60 518 -252 985 -483 398 -196
455 -241 486 -388 22 -101 14 -432 -15 -609 -50 -314 -158 -705 -238 -864 -42
-85 -125 -206 -206 -302 -299 -357 -864 -736 -1387 -932 -192 -72 -303 -97
-565 -129 -292 -35 -654 -39 -880 -10 -560 73 -1210 254 -2145 599 -873 323
-1367 562 -1995 966 -1251 806 -2542 2101 -3544 3557 -83 121 -195 280 -248
354 -679 944 -1073 1859 -1185 2751 -17 136 -16 597 1 750 49 439 150 802 321
1155 158 325 344 585 660 924 171 184 269 263 410 335 132 67 208 92 370 120
14 3 201 3 415 1 303 -3 406 -8 460 -19z"/>
</g>
</svg>
